<svg width="20" height="21" viewBox="0 0 20 21" fill="none" xmlns="http://www.w3.org/2000/svg">
<path d="M7.24313 16.2504C7.00805 17.4186 5.9534 18.2999 4.68792 18.2999H2.60463C2.31698 18.2999 2.0838 18.0722 2.0838 17.7914V15.7575C2.0838 14.522 2.98647 13.4923 4.18306 13.2628L4.19537 12.9142C4.21619 12.3247 4.27837 11.7462 4.37909 11.1811H0.521336C0.152873 11.1811 -0.0990794 10.8178 0.0377646 10.4838L2.12106 5.399C2.20015 5.20595 2.39166 5.07937 2.60463 5.07937H7.29203C7.31847 5.07937 7.34445 5.08129 7.36984 5.085C9.82229 2.3554 13.4635 0.683002 17.4703 0.817893C18.1064 0.839308 18.74 0.906869 19.3658 1.02002C19.5779 1.05836 19.7438 1.22036 19.7831 1.42741C20.6378 5.93351 18.9087 10.3226 15.6197 13.1409C15.6233 13.1651 15.6252 13.1899 15.6252 13.2151V17.7914C15.6252 17.9993 15.4955 18.1863 15.2978 18.2635L10.0896 20.2974C9.74746 20.431 9.37532 20.185 9.37532 19.8253V16.0574C8.78868 16.1578 8.19554 16.2183 7.60021 16.2383L7.24313 16.2504ZM6.23736 15.9554L4.48521 14.2447C3.71805 14.3418 3.12545 14.9821 3.12545 15.7575V17.2829H4.68792C5.48215 17.2829 6.13798 16.7044 6.23736 15.9554ZM10.417 15.8358V19.0743L14.5835 17.4471V13.9404C13.3522 14.7935 11.9496 15.4448 10.417 15.8358ZM4.60541 10.1642C5.00252 8.68092 5.66974 7.30798 6.55114 6.09633H2.95724L1.29061 10.1642H4.60541ZM6.97945 15.2417L7.56431 15.222C8.14881 15.2023 8.731 15.1402 9.30607 15.0363C15.5941 13.8994 19.7873 8.08955 18.8194 1.96099C18.3608 1.8922 17.8983 1.84987 17.4344 1.83425C10.9222 1.61501 5.46096 6.59136 5.2364 12.9492L5.21623 13.5202L6.97945 15.2417ZM12.5003 11.1811C10.7744 11.1811 9.37532 9.81521 9.37532 8.13025C9.37532 6.44529 10.7744 5.07937 12.5003 5.07937C14.2261 5.07937 15.6252 6.44529 15.6252 8.13025C15.6252 9.81521 14.2261 11.1811 12.5003 11.1811ZM12.5003 10.1642C13.6508 10.1642 14.5835 9.25356 14.5835 8.13025C14.5835 7.00695 13.6508 6.09633 12.5003 6.09633C11.3497 6.09633 10.417 7.00695 10.417 8.13025C10.417 9.25356 11.3497 10.1642 12.5003 10.1642Z" fill="white"/>
</svg>
