<svg width="18" height="30" viewBox="0 0 18 30" fill="none" xmlns="http://www.w3.org/2000/svg">
<path d="M17.027 14.3038V13.988C17.027 13.2829 16.4587 12.708 15.7548 12.708H15.6206C14.9154 12.708 14.3483 13.2829 14.3483 13.9867V14.3038V15.4296H13.8577V14.3038V13.9867C13.8577 13.2829 13.2906 12.708 12.588 12.708H12.45C11.7499 12.708 11.179 13.2829 11.179 13.9867V15.4296H10.6885V13.9867C10.6885 13.2829 10.1201 12.708 9.41876 12.708H9.28199C8.57813 12.708 8.01102 13.2829 8.01102 13.9867V14.3038V15.4296H7.60576V12.0498C10.228 11.3662 12.1803 8.98458 12.1803 6.13418C12.1803 2.75058 9.44761 0 6.09013 0C2.73266 0 0 2.75185 0 6.13418C0 9.1084 2.11662 11.5899 4.91075 12.1458V15.4334V16.9546V20.0286C3.55571 18.5744 2.73642 16.9533 1.85941 16.7512C0.72645 16.4871 -0.229604 17.364 0.553306 18.8852C1.33747 20.4052 5.08891 27.003 5.09393 27.0106C5.59078 28.2235 7.18922 30.0013 10.9658 30C17.0233 30.0013 17.0233 24.5582 17.0233 24.5582V16.7006C17.0233 16.6956 17.0258 16.6931 17.0258 16.688L17.027 14.3038ZM6.32978 5.78167L6.19176 5.78041C5.48538 5.78041 4.91326 6.35655 4.91326 7.07042V8.4893C4.05632 8.05087 3.46287 7.16644 3.46287 6.13544C3.46287 4.67612 4.64225 3.48719 6.09264 3.48719C7.54303 3.48719 8.72367 4.67486 8.72367 6.13544C8.72367 7.02493 8.27952 7.81081 7.61078 8.28967V7.07042C7.60953 6.35655 7.03866 5.7804 6.32978 5.78167ZM0.62984 6.13418C0.62984 3.10057 3.0802 0.631735 6.09264 0.631735C9.10509 0.631735 11.5554 3.10057 11.5554 6.13418C11.5554 8.6346 9.87921 10.7244 7.60827 11.3915V9.73382C8.99718 9.1362 9.97582 7.7489 9.97582 6.13418C9.97582 3.97742 8.2331 2.22245 6.09139 2.22245C3.94968 2.22245 2.20695 3.97742 2.20695 6.13418C2.20695 7.87272 3.34869 9.33456 4.912 9.84122V11.4989C2.46792 10.9518 0.62984 8.75842 0.62984 6.13418Z" fill="white"/>
</svg>
