<svg width="30" height="28" viewBox="0 0 30 28" fill="none" xmlns="http://www.w3.org/2000/svg">
<path d="M4.64186 8.98425V4.93147C4.64186 4.43367 4.73969 3.94271 4.92759 3.49748L5.99509 0.968018H12.7612L14.1144 4.17451H27.6467C28.3941 4.17451 28.9999 4.89232 28.9999 5.77776V8.98425V23.4135C28.9999 25.1844 27.7882 26.62 26.2935 26.62H23.587" stroke="white" stroke-width="1.5" stroke-linecap="round" stroke-linejoin="round"/>
<path d="M22.5535 8.98438H2.35399C1.46171 8.98438 0.813667 9.98958 1.04845 11.0094L4.09804 24.2572C4.41917 25.6524 5.48865 26.6201 6.70913 26.6201H25.8751C26.7673 26.6201 27.4154 25.6148 27.1806 24.595L23.8591 10.1658C23.6985 9.46827 23.1638 8.98438 22.5535 8.98438Z" stroke="white" stroke-width="1.5"/>
</svg>
