<svg width="23" height="27" viewBox="0 0 23 27" fill="none" xmlns="http://www.w3.org/2000/svg">
<path d="M13 1H5.8C4.11985 1 3.27976 1 2.63803 1.30276C2.07354 1.56907 1.61459 1.99401 1.32698 2.51669C1 3.11089 1 3.88875 1 5.44444V21.5556C1 23.1112 1 23.8892 1.32698 24.4833C1.61459 25.006 2.07354 25.431 2.63803 25.6972C3.27976 26 4.11985 26 5.8 26H17.2C18.8802 26 19.7203 26 20.362 25.6972C20.9265 25.431 21.3854 25.006 21.673 24.4833C22 23.8892 22 23.1112 22 21.5556V9.33333M13 1L22 9.33333M13 1V7.11111C13 7.88896 13 8.27789 13.1635 8.57499C13.3073 8.83632 13.5367 9.04879 13.819 9.18196C14.1398 9.33333 14.5599 9.33333 15.4 9.33333H22M5.5 5.16667H8.5M5.5 9.33333H8.5M17.5 20.4444H14.5L13 18.3611L11.5 20.4444L8.5 16.2778L7.75 20.4444H5.5" stroke="white" stroke-width="1.5803" stroke-linecap="round" stroke-linejoin="round"/>
</svg>
