<svg width="30" height="31" viewBox="0 0 30 31" fill="none" xmlns="http://www.w3.org/2000/svg">
<g clip-path="url(#clip0_30_1647)">
<path d="M25.3125 12.2174L27.375 11.9733C27.4783 11.5541 27.5204 11.1227 27.5 10.6919C27.5204 10.2612 27.4783 9.8298 27.375 9.41055L25.3125 9.16647L24.75 9.04443L24.375 8.19017L24.6875 7.70202L25.9375 6.0545C25.4307 5.37671 24.8192 4.77977 24.125 4.28495L22.4375 5.50533L21.9375 5.81043L21.0625 5.44431L20.9375 4.89514L20.6875 2.88152C20.2581 2.78067 19.8162 2.73959 19.375 2.75948C18.9338 2.73959 18.4919 2.78067 18.0625 2.88152L17.8125 4.89514L17.6875 5.44431L16.8125 5.81043L16.3125 5.50533L14.625 4.28495C13.9308 4.77977 13.3193 5.37671 12.8125 6.0545L14.0625 7.70202L14.375 8.19017L14 9.04443L13.4375 9.16647L11.375 9.41055C11.2717 9.8298 11.2296 10.2612 11.25 10.6919C11.2296 11.1227 11.2717 11.5541 11.375 11.9733L13.4375 12.2174L14 12.3395L14.375 13.1937L14.0625 13.6819L12.8125 15.3294C13.3193 16.0072 13.9308 16.6041 14.625 17.0989L16.3125 15.8786L16.8125 15.5735L17.6875 15.9396L17.8125 16.4887L18.0625 18.5024C18.4919 18.6032 18.9338 18.6443 19.375 18.6244C19.8162 18.6443 20.2581 18.6032 20.6875 18.5024L20.9375 16.4887L21.0625 15.9396L21.9375 15.5735L22.4375 15.8786L24.125 17.0989C24.8192 16.6041 25.4307 16.0072 25.9375 15.3294L24.6875 13.6819L24.375 13.1937L24.75 12.3395L25.3125 12.2174ZM19.375 13.1327C18.8805 13.1327 18.3972 12.9896 17.9861 12.7214C17.575 12.4532 17.2545 12.072 17.0653 11.626C16.8761 11.18 16.8266 10.6892 16.923 10.2158C17.0195 9.74232 17.2576 9.30741 17.6072 8.96607C17.9569 8.62472 18.4023 8.39226 18.8873 8.29808C19.3722 8.20391 19.8749 8.25224 20.3317 8.43698C20.7885 8.62171 21.179 8.93455 21.4537 9.33593C21.7284 9.73731 21.875 10.2092 21.875 10.6919C21.875 11.3393 21.6116 11.9601 21.1428 12.4178C20.6739 12.8756 20.038 13.1327 19.375 13.1327ZM3.75 19.8448H11.25C11.5815 19.8448 11.8995 19.9734 12.1339 20.2022C12.3683 20.4311 12.5 20.7415 12.5 21.0652V27.1671C12.5 27.4907 12.3683 27.8011 12.1339 28.03C11.8995 28.2589 11.5815 28.3874 11.25 28.3874H3.75C3.41848 28.3874 3.10054 28.2589 2.86612 28.03C2.6317 27.8011 2.5 27.4907 2.5 27.1671V21.0652C2.5 20.7415 2.6317 20.4311 2.86612 20.2022C3.10054 19.9734 3.41848 19.8448 3.75 19.8448ZM3.75 17.404H10C10.0904 17.3964 10.1784 17.3713 10.2588 17.3303C10.3393 17.2893 10.4106 17.2331 10.4687 17.165C10.5268 17.097 10.5706 17.0183 10.5974 16.9337C10.6242 16.849 10.6336 16.76 10.625 16.6718C10.6344 16.5858 10.6122 16.4993 10.5625 16.4277C9.38289 14.7366 8.75204 12.738 8.75204 10.6919C8.75204 8.64593 9.38289 6.64729 10.5625 4.95616C10.6051 4.87633 10.6308 4.78895 10.6381 4.69922C10.6454 4.60949 10.6341 4.51924 10.605 4.43385C10.5758 4.34846 10.5294 4.26966 10.4684 4.20215C10.4074 4.13464 10.3331 4.0798 10.25 4.04088H3.75C3.42903 4.04049 3.1202 4.16065 2.8875 4.37648C2.6548 4.59231 2.51605 4.88727 2.5 5.20024V16.1837C2.5 16.5073 2.6317 16.8177 2.86612 17.0466C3.10054 17.2755 3.41848 17.404 3.75 17.404ZM24.125 19.9668C22.6504 20.6879 21.0242 21.0639 19.375 21.0652C18.1593 21.0762 16.9518 20.8694 15.8125 20.455C15.7306 20.427 15.6435 20.416 15.557 20.4226C15.4704 20.4293 15.3863 20.4535 15.3098 20.4937C15.2334 20.5339 15.1663 20.5892 15.113 20.656C15.0597 20.7229 15.0212 20.7999 15 20.8821V27.1671C15 27.4907 15.1317 27.8011 15.3661 28.03C15.6005 28.2589 15.9185 28.3874 16.25 28.3874H23.75C24.0815 28.3874 24.3995 28.2589 24.6339 28.03C24.8683 27.8011 25 27.4907 25 27.1671V20.516C25 20.3542 24.9342 20.199 24.8169 20.0845C24.6997 19.9701 24.5408 19.9058 24.375 19.9058L24.125 19.9668Z" fill="black"/>
</g>
<defs>
<clipPath id="clip0_30_1647">
<rect width="30" height="29.2891" fill="white" transform="translate(0 0.928909)"/>
</clipPath>
</defs>
</svg>
