<svg width="30" height="30" viewBox="0 0 30 30" fill="none" xmlns="http://www.w3.org/2000/svg">
<path d="M29.814 14.201L24.7934 9.19976C24.5455 8.95278 24.1116 8.95278 23.8636 9.19976L22.9339 10.1259C22.686 10.3729 22.686 10.8051 22.9339 11.0521L24.4835 12.5956C24.7314 12.8426 24.5455 13.3366 24.1736 13.3366H10.4752L18.657 5.24818C18.905 5.00121 19.4008 5.18644 19.4008 5.5569V7.77966C19.4008 8.15012 19.6488 8.39709 20.0207 8.39709H21.3223C21.6942 8.39709 21.9422 8.15012 21.9422 7.77966V0.617433C21.9422 0.246973 21.6942 0 21.3223 0H14.2562C13.9463 0 13.6364 0.308717 13.6364 0.679177V1.91404C13.6364 2.2845 13.8843 2.53148 14.2562 2.53148H16.4876C16.8595 2.53148 17.0455 2.96368 16.7975 3.2724L6.7562 13.2748H0.619835C0.247934 13.2748 0 13.5835 0 13.954V15.2506C0 15.6211 0.371901 15.9298 0.681818 15.9298H6.88017L16.8595 25.8705C17.1074 26.1174 16.9215 26.6114 16.5496 26.6114H14.3182C13.9463 26.6114 13.6983 26.8584 13.6983 27.2288V28.4637C13.6983 28.7724 13.9463 29.0811 14.3182 29.1429H21.3843C21.7562 29.1429 22.0041 28.8959 22.0041 28.5254V21.4249C22.0041 21.0545 21.7562 20.8075 21.3843 20.8075H20.0826C19.7107 20.8075 19.4628 21.0545 19.4628 21.4249V23.6477C19.4628 24.0182 19.0289 24.2034 18.719 23.9564L10.5372 15.9298H24.2355C24.6074 15.9298 24.7934 16.4237 24.5455 16.6707L22.9339 18.2143C22.686 18.4613 22.686 18.8935 22.9339 19.1404L23.8636 20.0666C24.1116 20.3136 24.5455 20.3136 24.7934 20.0666L29.814 15.1271C30.062 14.8184 30.062 14.4479 29.814 14.201Z" fill="#193547"/>
</svg>
