<svg width="24" height="25" viewBox="0 0 24 25" fill="none" xmlns="http://www.w3.org/2000/svg">
<path d="M21.5717 10.2657V6.65819C21.5717 5.32993 20.4961 4.25317 19.1692 4.25317H4.75408C3.42721 4.25317 2.35156 5.32993 2.35156 6.65819V10.2657M21.5717 10.2657V21.0883C21.5717 22.4166 20.4961 23.4934 19.1692 23.4934H4.75408C3.42721 23.4934 2.35156 22.4166 2.35156 21.0883V10.2657M21.5717 10.2657H2.35156M7.15661 1.84814V6.65819M16.7667 1.84814V6.65819" stroke="white" stroke-width="2.98223" stroke-linecap="round"/>
<path d="M5.49959 15.5326V13.4162H7.61225V15.5326H5.49959Z" fill="white" stroke="white" stroke-width="1.49112"/>
<path d="M10.9053 15.5326V13.4162H13.018V15.5326H10.9053Z" fill="white" stroke="white" stroke-width="1.49112"/>
<path d="M16.311 15.5326V13.4162H18.4237V15.5326H16.311Z" fill="white" stroke="white" stroke-width="1.49112"/>
</svg>
