<svg width="43" height="39" viewBox="0 0 43 39" fill="none" xmlns="http://www.w3.org/2000/svg">
<path d="M19.1667 38.3333C8.58092 38.3333 0 29.7524 0 19.1667C0 8.58092 8.58092 5.40171e-06 19.1667 5.40171e-06C22.1426 -0.00223031 25.078 0.689569 27.7398 2.02044C30.4015 3.35132 32.7162 5.28459 34.5 7.66667H29.3058C27.0925 5.71504 24.3631 4.44352 21.445 4.00469C18.527 3.56585 15.5443 3.97834 12.8549 5.19266C10.1654 6.40698 7.88353 8.37155 6.28297 10.8506C4.6824 13.3297 3.83117 16.2179 3.83141 19.1688C3.83166 22.1197 4.68337 25.0078 6.28435 27.4866C7.88533 29.9654 10.1676 31.9295 12.8572 33.1434C15.5468 34.3573 18.5296 34.7693 21.4476 34.33C24.3655 33.8906 27.0948 32.6187 29.3077 30.6667H34.5019C32.718 33.049 30.4029 34.9824 27.7408 36.3133C25.0787 37.6442 22.1429 38.3359 19.1667 38.3333ZM32.5833 26.8333V21.0833H17.25V17.25H32.5833V11.5L42.1667 19.1667L32.5833 26.8333Z" fill="white"/>
</svg>
