<svg width="54" height="54" viewBox="0 0 54 54" fill="none" xmlns="http://www.w3.org/2000/svg">
<path d="M37.7757 0H16.1432C14.7089 0 13.3333 0.568917 12.3191 1.58163C11.3049 2.59432 10.7351 3.96784 10.7351 5.4H35.0717V18.9H48.5919V48.6H10.7351C10.7351 50.0321 11.3049 51.4056 12.3191 52.4183C13.3333 53.4311 14.7089 54 16.1432 54H48.5919C50.0262 54 51.4018 53.4311 52.4159 52.4183C53.4303 51.4056 54 50.0321 54 48.6V16.2L37.7757 0Z" fill="black"/>
<path d="M29.7446 28.242H16.2244V43.2H29.7446V28.242Z" fill="black"/>
<path d="M29.7446 10.8H0V25.758H29.7446V10.8Z" fill="black"/>
<path d="M13.5203 28.242H0V43.2H13.5203V28.242Z" fill="black"/>
</svg>
