<svg width="47" height="47" viewBox="0 0 47 47" fill="none" xmlns="http://www.w3.org/2000/svg">
<path fill-rule="evenodd" clip-rule="evenodd" d="M40.1048 28.3481L46.1437 27.361C46.6384 27.2806 47.0009 26.8534 47 26.3526V20.7332C47 20.2376 46.6443 19.8126 46.1549 19.7268L40.1077 18.6652C39.7573 17.4535 39.2761 16.2864 38.6701 15.1831L42.2445 10.2204C42.5376 9.81389 42.4918 9.25489 42.1381 8.90033L38.1652 4.92472C37.8138 4.57428 37.2619 4.52433 36.8553 4.81133L31.8431 8.32723C30.7377 7.71212 29.5636 7.22155 28.3384 6.86111L27.2706 0.843063C27.1848 0.355438 26.7606 0 26.2651 0H20.645C20.1454 0 19.7191 0.360725 19.6387 0.852169L18.6411 6.84055C17.4181 7.19394 16.2379 7.68156 15.121 8.2955L10.1447 4.81045C9.73905 4.52522 9.18624 4.57428 8.83574 4.92472L4.86288 8.90033C4.51035 9.25489 4.46435 9.81184 4.75458 10.2175L8.27068 15.1349C7.65042 16.257 7.15789 17.4411 6.80128 18.6702L0.843004 19.7268C0.355585 19.8134 0 20.2376 0 20.7332V26.3526C0 26.8514 0.361724 27.2785 0.854255 27.3602L6.81253 28.3522C7.1712 29.5844 7.6637 30.7686 8.28193 31.8874L4.80872 36.8562C4.52363 37.2618 4.57269 37.8136 4.92316 38.164L8.89501 42.1355C9.2496 42.488 9.80443 42.535 10.2122 42.2438L15.1476 38.7188C16.2563 39.3257 17.4334 39.809 18.6596 40.1615L19.6366 46.1427C19.7171 46.6373 20.1442 47 20.645 47H26.2651C26.7618 47 27.1857 46.6424 27.2715 46.154L28.3251 40.1401C29.5442 39.7855 30.7192 39.2971 31.8319 38.682L36.7807 42.2387C37.1873 42.5319 37.7454 42.4859 38.1 42.1324L42.0738 38.1609C42.4243 37.8094 42.4733 37.2567 42.1881 36.8511L38.6628 31.8272C39.2679 30.7247 39.7511 29.5599 40.1048 28.3481ZM16.3472 23.5C16.3472 19.5499 19.5497 16.3478 23.5 16.3478C27.4503 16.3478 30.6528 19.5499 30.6528 23.5C30.6528 27.4501 27.4503 30.6522 23.5 30.6522C19.5497 30.6522 16.3472 27.4501 16.3472 23.5Z" fill="white"/>
</svg>
