<svg width="21" height="20" viewBox="0 0 21 20" fill="none" xmlns="http://www.w3.org/2000/svg">
<path fill-rule="evenodd" clip-rule="evenodd" d="M11.9308 10.3549L14.3976 11.7806C14.6384 11.9198 14.7163 12.236 14.5808 12.4711C14.4411 12.7132 14.1396 12.8008 13.8918 12.6576L11.3832 11.2077C11.1264 11.4074 10.8037 11.5263 10.4533 11.5263C9.61532 11.5263 8.93597 10.8462 8.93597 10.0073C8.93597 9.34594 9.35821 8.7833 9.94755 8.57478V3.93491C9.94755 3.65337 10.1822 3.42513 10.4533 3.42513C10.7327 3.42513 10.9591 3.66097 10.9591 3.93491V8.57478C11.5485 8.7833 11.9707 9.34594 11.9707 10.0073C11.9707 10.1269 11.9569 10.2433 11.9308 10.3549ZM10.4533 19.6274C15.7609 19.6274 20.0634 15.3203 20.0634 10.0073C20.0634 4.69427 15.7609 0.387207 10.4533 0.387207C5.14584 0.387207 0.843262 4.69427 0.843262 10.0073C0.843262 15.3203 5.14584 19.6274 10.4533 19.6274Z" fill="white"/>
</svg>
