<svg width="25" height="31" viewBox="0 0 25 31" fill="none" xmlns="http://www.w3.org/2000/svg">
<mask id="path-1-inside-1_50_4597" fill="white">
<path d="M23.183 5.21628H1.73882C1.51349 5.21628 1.29739 5.12659 1.13806 4.96694C0.978726 4.80729 0.889214 4.59076 0.889214 4.36498C0.889214 4.1392 0.978726 3.92266 1.13806 3.76301C1.29739 3.60336 1.51349 3.51367 1.73882 3.51367H23.183C23.4083 3.51367 23.6244 3.60336 23.7838 3.76301C23.9431 3.92266 24.0326 4.1392 24.0326 4.36498C24.0326 4.59076 23.9431 4.80729 23.7838 4.96694C23.6244 5.12659 23.4083 5.21628 23.183 5.21628Z"/>
</mask>
<path d="M23.183 5.21628H1.73882C1.51349 5.21628 1.29739 5.12659 1.13806 4.96694C0.978726 4.80729 0.889214 4.59076 0.889214 4.36498C0.889214 4.1392 0.978726 3.92266 1.13806 3.76301C1.29739 3.60336 1.51349 3.51367 1.73882 3.51367H23.183C23.4083 3.51367 23.6244 3.60336 23.7838 3.76301C23.9431 3.92266 24.0326 4.1392 24.0326 4.36498C24.0326 4.59076 23.9431 4.80729 23.7838 4.96694C23.6244 5.12659 23.4083 5.21628 23.183 5.21628Z" fill="#F5F5F5"/>
<path d="M23.183 5.21628V9.21628V5.21628ZM1.73882 5.21628V9.21628V5.21628ZM0.889214 4.36498H-3.11079H0.889214ZM1.73882 3.51367L1.73882 -0.486328L1.73882 3.51367ZM23.183 1.21628H1.73882V9.21628H23.183V1.21628ZM1.73882 1.21628C2.57693 1.21628 3.3791 1.54996 3.9693 2.14133L-1.69318 7.79255C-0.78432 8.70323 0.450056 9.21628 1.73882 9.21628L1.73882 1.21628ZM3.9693 2.14133C4.55923 2.73244 4.88921 3.53246 4.88921 4.36498L-3.11079 4.36498C-3.11079 5.64905 -2.60178 6.88214 -1.69318 7.79255L3.9693 2.14133ZM4.88921 4.36498C4.88921 5.19749 4.55923 5.99752 3.9693 6.58862L-1.69318 0.937405C-2.60178 1.84781 -3.11079 3.0809 -3.11079 4.36498H4.88921ZM3.9693 6.58862C3.3791 7.18 2.57693 7.51367 1.73882 7.51367L1.73882 -0.486328C0.450056 -0.486328 -0.78432 0.0267284 -1.69318 0.937405L3.9693 6.58862ZM1.73882 7.51367H23.183V-0.486328H1.73882V7.51367ZM23.183 7.51367C22.3449 7.51367 21.5427 7.18 20.9525 6.58862L26.615 0.937405C25.7062 0.0267265 24.4718 -0.486328 23.183 -0.486328V7.51367ZM20.9525 6.58862C20.3626 5.99751 20.0326 5.19749 20.0326 4.36498H28.0326C28.0326 3.08091 27.5236 1.84782 26.615 0.937405L20.9525 6.58862ZM20.0326 4.36498C20.0326 3.53247 20.3626 2.73244 20.9525 2.14133L26.615 7.79255C27.5236 6.88214 28.0326 5.64905 28.0326 4.36498H20.0326ZM20.9525 2.14133C21.5427 1.54996 22.3449 1.21628 23.183 1.21628V9.21628C24.4718 9.21628 25.7062 8.70323 26.615 7.79255L20.9525 2.14133Z" fill="white" mask="url(#path-1-inside-1_50_4597)"/>
<mask id="path-3-inside-2_50_4597" fill="white">
<path d="M18.3912 30.5001H6.54198C5.71577 30.5001 4.9234 30.1712 4.33918 29.5859C3.75495 29.0005 3.42674 28.2065 3.42674 27.3787V4.35936C3.42674 4.13358 3.51626 3.91705 3.67559 3.7574C3.83492 3.59775 4.05102 3.50806 4.27635 3.50806H20.6569C20.8822 3.50806 21.0983 3.59775 21.2576 3.7574C21.417 3.91705 21.5065 4.13358 21.5065 4.35936V27.3787C21.505 28.2061 21.1763 28.9991 20.5924 29.5842C20.0085 30.1693 19.217 30.4986 18.3912 30.5001ZM5.13729 5.21067V27.3787C5.13729 27.755 5.28648 28.1158 5.55204 28.3819C5.81759 28.648 6.17776 28.7975 6.55331 28.7975H18.3912C18.7668 28.7975 19.127 28.648 19.3925 28.3819C19.6581 28.1158 19.8072 27.755 19.8072 27.3787V5.21067H5.13729Z"/>
</mask>
<path d="M18.3912 30.5001H6.54198C5.71577 30.5001 4.9234 30.1712 4.33918 29.5859C3.75495 29.0005 3.42674 28.2065 3.42674 27.3787V4.35936C3.42674 4.13358 3.51626 3.91705 3.67559 3.7574C3.83492 3.59775 4.05102 3.50806 4.27635 3.50806H20.6569C20.8822 3.50806 21.0983 3.59775 21.2576 3.7574C21.417 3.91705 21.5065 4.13358 21.5065 4.35936V27.3787C21.505 28.2061 21.1763 28.9991 20.5924 29.5842C20.0085 30.1693 19.217 30.4986 18.3912 30.5001ZM5.13729 5.21067V27.3787C5.13729 27.755 5.28648 28.1158 5.55204 28.3819C5.81759 28.648 6.17776 28.7975 6.55331 28.7975H18.3912C18.7668 28.7975 19.127 28.648 19.3925 28.3819C19.6581 28.1158 19.8072 27.755 19.8072 27.3787V5.21067H5.13729Z" fill="#F5F5F5"/>
<path d="M18.3912 30.5001V34.5001L18.3985 34.5001L18.3912 30.5001ZM3.42674 27.3787H7.42674H3.42674ZM3.42674 4.35936L7.42674 4.35936L3.42674 4.35936ZM4.27635 3.50806L4.27635 -0.491943L4.27635 3.50806ZM21.5065 27.3787L25.5065 27.3859V27.3787H21.5065ZM5.13729 5.21067V1.21067H1.13729V5.21067H5.13729ZM18.3912 28.7975V24.7975V28.7975ZM19.8072 5.21067H23.8072V1.21067H19.8072V5.21067ZM18.3912 26.5001H6.54198V34.5001H18.3912V26.5001ZM6.54198 26.5001C6.77921 26.5001 7.00511 26.5946 7.17042 26.7603L1.50793 32.4115C2.84168 33.7479 4.65233 34.5001 6.54198 34.5001V26.5001ZM7.17042 26.7603C7.33546 26.9256 7.42674 27.1482 7.42674 27.3787H-0.573257C-0.573257 29.2648 0.174449 31.0753 1.50793 32.4115L7.17042 26.7603ZM7.42674 27.3787V4.35936H-0.573257V27.3787H7.42674ZM7.42674 4.35936C7.42674 5.19188 7.09676 5.99191 6.50683 6.58301L0.844346 0.931789C-0.0642457 1.84219 -0.573257 3.07528 -0.573257 4.35936L7.42674 4.35936ZM6.50683 6.58301C5.91664 7.17438 5.11446 7.50806 4.27635 7.50806L4.27635 -0.491943C2.98758 -0.491943 1.75321 0.0211151 0.844346 0.931789L6.50683 6.58301ZM4.27635 7.50806H20.6569V-0.491943H4.27635V7.50806ZM20.6569 7.50806C19.8187 7.50806 19.0166 7.17438 18.4264 6.58301L24.0889 0.931789C23.18 0.0211189 21.9456 -0.491943 20.6569 -0.491943V7.50806ZM18.4264 6.58301C17.8365 5.99191 17.5065 5.1919 17.5065 4.35936H25.5065C25.5065 3.07527 24.9974 1.84218 24.0889 0.931789L18.4264 6.58301ZM17.5065 4.35936V27.3787H25.5065V4.35936H17.5065ZM17.5065 27.3714C17.5069 27.143 17.5976 26.9225 17.7611 26.7586L23.4236 32.4098C24.755 31.0758 25.5031 29.2691 25.5065 27.3859L17.5065 27.3714ZM17.7611 26.7586C17.925 26.5944 18.1488 26.5005 18.384 26.5001L18.3985 34.5001C20.2852 34.4967 22.092 33.7441 23.4236 32.4098L17.7611 26.7586ZM1.13729 5.21067V27.3787H9.13729V5.21067H1.13729ZM1.13729 27.3787C1.13729 28.8133 1.70598 30.1907 2.72079 31.2075L8.38328 25.5563C8.86698 26.041 9.13729 26.6967 9.13729 27.3787H1.13729ZM2.72079 31.2075C3.73587 32.2246 5.11431 32.7975 6.55331 32.7975V24.7975C7.24121 24.7975 7.89931 25.0714 8.38328 25.5563L2.72079 31.2075ZM6.55331 32.7975H18.3912V24.7975H6.55331V32.7975ZM18.3912 32.7975C19.8302 32.7975 21.2087 32.2246 22.2237 31.2075L16.5613 25.5563C17.0452 25.0714 17.7033 24.7975 18.3912 24.7975V32.7975ZM22.2237 31.2075C23.2386 30.1907 23.8072 28.8133 23.8072 27.3787H15.8072C15.8072 26.6967 16.0776 26.041 16.5613 25.5563L22.2237 31.2075ZM23.8072 27.3787V5.21067H15.8072V27.3787H23.8072ZM19.8072 1.21067H5.13729V9.21067H19.8072V1.21067Z" fill="white" mask="url(#path-3-inside-2_50_4597)"/>
<mask id="path-5-inside-3_50_4597" fill="white">
<path d="M17.0316 5.21056H7.91249C7.68715 5.21056 7.47105 5.12087 7.31172 4.96122C7.15239 4.80156 7.06287 4.58503 7.06287 4.35925V1.35131C7.06287 1.12553 7.15239 0.908992 7.31172 0.749341C7.47105 0.589691 7.68715 0.5 7.91249 0.5H17.0316C17.257 0.5 17.4731 0.589691 17.6324 0.749341C17.7917 0.908992 17.8813 1.12553 17.8813 1.35131V4.35925C17.8813 4.58503 17.7917 4.80156 17.6324 4.96122C17.4731 5.12087 17.257 5.21056 17.0316 5.21056ZM8.77342 3.50795H16.1707V2.20261H8.7621L8.77342 3.50795Z"/>
</mask>
<path d="M17.0316 5.21056H7.91249C7.68715 5.21056 7.47105 5.12087 7.31172 4.96122C7.15239 4.80156 7.06287 4.58503 7.06287 4.35925V1.35131C7.06287 1.12553 7.15239 0.908992 7.31172 0.749341C7.47105 0.589691 7.68715 0.5 7.91249 0.5H17.0316C17.257 0.5 17.4731 0.589691 17.6324 0.749341C17.7917 0.908992 17.8813 1.12553 17.8813 1.35131V4.35925C17.8813 4.58503 17.7917 4.80156 17.6324 4.96122C17.4731 5.12087 17.257 5.21056 17.0316 5.21056ZM8.77342 3.50795H16.1707V2.20261H8.7621L8.77342 3.50795Z" fill="#F5F5F5"/>
<path d="M17.0316 5.21056V9.21056V5.21056ZM7.91249 5.21056V9.21056V5.21056ZM7.91249 0.5V-3.5V0.5ZM8.77342 3.50795L4.77358 3.54266L4.80799 7.50795H8.77342V3.50795ZM16.1707 3.50795V7.50795H20.1707V3.50795H16.1707ZM16.1707 2.20261H20.1707V-1.79739H16.1707V2.20261ZM8.7621 2.20261V-1.79739H4.72723L4.76225 2.23732L8.7621 2.20261ZM17.0316 1.21056H7.91249V9.21056H17.0316V1.21056ZM7.91249 1.21056C8.75059 1.21056 9.55276 1.54423 10.143 2.13561L4.48048 7.78682C5.38934 8.6975 6.62372 9.21056 7.91249 9.21056V1.21056ZM10.143 2.13561C10.7329 2.72671 11.0629 3.52673 11.0629 4.35925H3.06287C3.06287 5.64333 3.57189 6.87642 4.48048 7.78682L10.143 2.13561ZM11.0629 4.35925V1.35131H3.06287V4.35925H11.0629ZM11.0629 1.35131C11.0629 2.18383 10.7329 2.98385 10.143 3.57495L4.48048 -2.07627C3.57189 -1.16586 3.06287 0.067223 3.06287 1.35131H11.0629ZM10.143 3.57495C9.55277 4.16632 8.7506 4.5 7.91249 4.5V-3.5C6.62371 -3.5 5.38934 -2.98694 4.48048 -2.07627L10.143 3.57495ZM7.91249 4.5H17.0316V-3.5H7.91249V4.5ZM17.0316 4.5C16.1935 4.5 15.3914 4.16633 14.8012 3.57495L20.4637 -2.07627C19.5548 -2.98695 18.3204 -3.5 17.0316 -3.5V4.5ZM14.8012 3.57495C14.2112 2.98384 13.8813 2.18381 13.8813 1.35131H21.8813C21.8813 0.067236 21.3723 -1.16585 20.4637 -2.07627L14.8012 3.57495ZM13.8813 1.35131V4.35925H21.8813V1.35131H13.8813ZM13.8813 4.35925C13.8813 3.52674 14.2112 2.72672 14.8012 2.13561L20.4637 7.78682C21.3723 6.87641 21.8813 5.64332 21.8813 4.35925H13.8813ZM14.8012 2.13561C15.3914 1.54423 16.1935 1.21056 17.0316 1.21056V9.21056C18.3204 9.21056 19.5548 8.6975 20.4637 7.78682L14.8012 2.13561ZM8.77342 7.50795H16.1707V-0.492054H8.77342V7.50795ZM20.1707 3.50795V2.20261H12.1707V3.50795H20.1707ZM16.1707 -1.79739H8.7621V6.20261H16.1707V-1.79739ZM4.76225 2.23732L4.77358 3.54266L12.7733 3.47323L12.7619 2.1679L4.76225 2.23732Z" fill="white" mask="url(#path-5-inside-3_50_4597)"/>
<mask id="path-7-inside-4_50_4597" fill="white">
<path d="M8.50182 24.6431C8.27649 24.6431 8.06038 24.5534 7.90105 24.3937C7.74172 24.2341 7.65221 24.0176 7.65221 23.7918V9.80199C7.65221 9.57621 7.74172 9.35968 7.90105 9.20002C8.06038 9.04037 8.27649 8.95068 8.50182 8.95068C8.72715 8.95068 8.94325 9.04037 9.10258 9.20002C9.26192 9.35968 9.35143 9.57621 9.35143 9.80199V23.7918C9.35143 24.0176 9.26192 24.2341 9.10258 24.3937C8.94325 24.5534 8.72715 24.6431 8.50182 24.6431Z"/>
</mask>
<path d="M8.50182 24.6431C8.27649 24.6431 8.06038 24.5534 7.90105 24.3937C7.74172 24.2341 7.65221 24.0176 7.65221 23.7918V9.80199C7.65221 9.57621 7.74172 9.35968 7.90105 9.20002C8.06038 9.04037 8.27649 8.95068 8.50182 8.95068C8.72715 8.95068 8.94325 9.04037 9.10258 9.20002C9.26192 9.35968 9.35143 9.57621 9.35143 9.80199V23.7918C9.35143 24.0176 9.26192 24.2341 9.10258 24.3937C8.94325 24.5534 8.72715 24.6431 8.50182 24.6431Z" fill="#F5F5F5"/>
<path d="M7.65221 9.80199L3.65221 9.80199V9.80199H7.65221ZM9.35143 9.80199H13.3514V9.80199L9.35143 9.80199ZM9.35143 23.7918H13.3514H9.35143ZM8.50182 20.6431C9.33992 20.6431 10.1421 20.9767 10.7323 21.5681L5.06981 27.2193C5.97868 28.13 7.21306 28.6431 8.50182 28.6431V20.6431ZM10.7323 21.5681C11.3222 22.1592 11.6522 22.9593 11.6522 23.7918H3.65221C3.65221 25.0758 4.16121 26.3089 5.06981 27.2193L10.7323 21.5681ZM11.6522 23.7918V9.80199H3.65221V23.7918H11.6522ZM11.6522 9.80199C11.6522 10.6345 11.3222 11.4345 10.7323 12.0256L5.06981 6.37442C4.16121 7.28483 3.65221 8.51792 3.65221 9.80199L11.6522 9.80199ZM10.7323 12.0256C10.1421 12.617 9.33992 12.9507 8.50182 12.9507V4.95068C7.21306 4.95068 5.97868 5.46373 5.06981 6.37442L10.7323 12.0256ZM8.50182 12.9507C7.66371 12.9507 6.86154 12.617 6.27134 12.0256L11.9338 6.37442C11.025 5.46374 9.79058 4.95068 8.50182 4.95068V12.9507ZM6.27134 12.0256C5.68142 11.4345 5.35143 10.6345 5.35143 9.80199L13.3514 9.80199C13.3514 8.5179 12.8424 7.28482 11.9338 6.37442L6.27134 12.0256ZM5.35143 9.80199V23.7918H13.3514V9.80199H5.35143ZM5.35143 23.7918C5.35143 22.9593 5.68141 22.1592 6.27134 21.5681L11.9338 27.2193C12.8424 26.3089 13.3514 25.0759 13.3514 23.7918H5.35143ZM6.27134 21.5681C6.86154 20.9768 7.66371 20.6431 8.50182 20.6431V28.6431C9.79058 28.6431 11.025 28.13 11.9338 27.2193L6.27134 21.5681Z" fill="white" mask="url(#path-7-inside-4_50_4597)"/>
<mask id="path-9-inside-5_50_4597" fill="white">
<path d="M16.4315 24.6431C16.2062 24.6431 15.9901 24.5534 15.8308 24.3937C15.6714 24.2341 15.5819 24.0176 15.5819 23.7918V9.80199C15.5819 9.57621 15.6714 9.35968 15.8308 9.20003C15.9901 9.04037 16.2062 8.95068 16.4315 8.95068C16.6569 8.95068 16.873 9.04037 17.0323 9.20003C17.1916 9.35968 17.2811 9.57621 17.2811 9.80199V23.7918C17.2811 24.0176 17.1916 24.2341 17.0323 24.3937C16.873 24.5534 16.6569 24.6431 16.4315 24.6431Z"/>
</mask>
<path d="M16.4315 24.6431C16.2062 24.6431 15.9901 24.5534 15.8308 24.3937C15.6714 24.2341 15.5819 24.0176 15.5819 23.7918V9.80199C15.5819 9.57621 15.6714 9.35968 15.8308 9.20003C15.9901 9.04037 16.2062 8.95068 16.4315 8.95068C16.6569 8.95068 16.873 9.04037 17.0323 9.20003C17.1916 9.35968 17.2811 9.57621 17.2811 9.80199V23.7918C17.2811 24.0176 17.1916 24.2341 17.0323 24.3937C16.873 24.5534 16.6569 24.6431 16.4315 24.6431Z" fill="#F5F5F5"/>
<path d="M16.4315 20.6431C17.2696 20.6431 18.0718 20.9768 18.662 21.5681L12.9995 27.2193C13.9084 28.13 15.1427 28.6431 16.4315 28.6431V20.6431ZM18.662 21.5681C19.2519 22.1592 19.5819 22.9592 19.5819 23.7918H11.5819C11.5819 25.0759 12.0909 26.309 12.9995 27.2193L18.662 21.5681ZM19.5819 23.7918V9.80199H11.5819V23.7918H19.5819ZM19.5819 9.80199C19.5819 10.6345 19.2519 11.4345 18.662 12.0256L12.9995 6.37442C12.0909 7.28481 11.5819 8.51789 11.5819 9.80199H19.5819ZM18.662 12.0256C18.0718 12.617 17.2696 12.9507 16.4315 12.9507V4.95068C15.1427 4.95068 13.9084 5.46375 12.9995 6.37442L18.662 12.0256ZM16.4315 12.9507C15.5934 12.9507 14.7912 12.617 14.201 12.0256L19.8635 6.37442C18.9547 5.46374 17.7203 4.95068 16.4315 4.95068V12.9507ZM14.201 12.0256C13.6111 11.4345 13.2811 10.6345 13.2811 9.80199H21.2811C21.2811 8.51792 20.7721 7.28483 19.8635 6.37442L14.201 12.0256ZM13.2811 9.80199V23.7918H21.2811V9.80199H13.2811ZM13.2811 23.7918C13.2811 22.9593 13.6111 22.1592 14.201 21.5681L19.8635 27.2193C20.7721 26.3089 21.2811 25.0758 21.2811 23.7918H13.2811ZM14.201 21.5681C14.7912 20.9768 15.5934 20.6431 16.4315 20.6431V28.6431C17.7203 28.6431 18.9547 28.13 19.8635 27.2193L14.201 21.5681Z" fill="white" mask="url(#path-9-inside-5_50_4597)"/>
</svg>
